<?xml version="1.0" encoding="UTF-8" standalone="no"?>
<!-- Created with Inkscape (http://www.inkscape.org/) -->

<svg
   xmlns:dc="http://purl.org/dc/elements/1.1/"
   xmlns:cc="http://creativecommons.org/ns#"
   xmlns:rdf="http://www.w3.org/1999/02/22-rdf-syntax-ns#"
   xmlns:svg="http://www.w3.org/2000/svg"
   xmlns="http://www.w3.org/2000/svg"
   xmlns:sodipodi="http://sodipodi.sourceforge.net/DTD/sodipodi-0.dtd"
   xmlns:inkscape="http://www.inkscape.org/namespaces/inkscape"
   width="744.09448"
   height="524.40942"
   id="svg2"
   version="1.1"
   inkscape:version="0.48.4 r9939"
   sodipodi:docname="roulette.svg">
  <defs
     id="defs4" />
  <sodipodi:namedview
     id="base"
     pagecolor="#ffffff"
     bordercolor="#666666"
     borderopacity="1.0"
     inkscape:pageopacity="0.0"
     inkscape:pageshadow="2"
     inkscape:zoom="1.4"
     inkscape:cx="385.17789"
     inkscape:cy="248.23606"
     inkscape:document-units="px"
     inkscape:current-layer="layer1"
     showgrid="true"
     showguides="true"
     inkscape:guide-bbox="true"
     inkscape:window-width="1600"
     inkscape:window-height="841"
     inkscape:window-x="0"
     inkscape:window-y="27"
     inkscape:window-maximized="1">
    <inkscape:grid
       type="xygrid"
       id="grid4498"
       empspacing="5"
       visible="true"
       enabled="true"
       snapvisiblegridlinesonly="true" />
  </sodipodi:namedview>
  <metadata
     id="metadata7">
    <rdf:RDF>
      <cc:Work
         rdf:about="">
        <dc:format>image/svg+xml</dc:format>
        <dc:type
           rdf:resource="http://purl.org/dc/dcmitype/StillImage" />
        <dc:title />
      </cc:Work>
    </rdf:RDF>
  </metadata>
  <g
     inkscape:label="Layer 1"
     inkscape:groupmode="layer"
     id="layer1"
     transform="translate(0,-527.95273)">
    <path
       sodipodi:type="arc"
       style="fill:#008000;fill-opacity:1;stroke:none"
       id="path4496"
       sodipodi:cx="279.28571"
       sodipodi:cy="276.55228"
       sodipodi:rx="183.57143"
       sodipodi:ry="183.57143"
       d="m 462.85713,276.55228 c 0,101.3837 -82.18773,183.57142 -183.57142,183.57142 -101.3837,0 -183.571431,-82.18772 -183.571431,-183.57142 0,-101.3837 82.187731,-183.57143 183.571431,-183.57143 101.38369,0 183.57142,82.18773 183.57142,183.57143 z"
       transform="matrix(1.0027514,0,0,1.0027514,-35.140795,549.7049)" />
    <path
       style="fill:none;stroke:#000000;stroke-width:1.41421354px;stroke-linecap:butt;stroke-linejoin:miter;stroke-opacity:1"
       d="m 240.5,642.36215 c 0,190 0,190 0,190"
       id="path4500"
       inkscape:connector-curvature="0" />
    <path
       style="fill:none;stroke:#000000;stroke-width:1.37822568px;stroke-linecap:butt;stroke-linejoin:miter;stroke-opacity:1"
       d="M 135.27796,679.52472 C 240.42617,832.72929 240.42617,832.72929 240.42617,832.72929"
       id="path4500-7"
       inkscape:connector-curvature="0" />
    <path
       style="fill:none;stroke:#000000;stroke-width:2.19158173px;stroke-linecap:butt;stroke-linejoin:miter;stroke-opacity:1"
       d="M 134.3921,973.38734 C 239.56778,832.42633 239.56778,832.42633 239.56778,832.42633"
       id="path4500-8"
       inkscape:connector-curvature="0" />
    <path
       style="fill:none;stroke:#000000;stroke-width:1.69344068px;stroke-linecap:butt;stroke-linejoin:miter;stroke-opacity:1"
       d="M 368.20262,961.85731 C 239.94024,832.15271 239.94024,832.15271 239.94024,832.15271"
       id="path4500-9"
       inkscape:connector-curvature="0" />
    <path
       style="fill:none;stroke:#000000;stroke-width:1.98395789px;stroke-linecap:butt;stroke-linejoin:miter;stroke-opacity:1"
       d="M 393.83502,932.21328 C 240.54291,832.10147 240.54291,832.10147 240.54291,832.10147"
       id="path4500-80"
       inkscape:connector-curvature="0" />
    <path
       sodipodi:type="arc"
       style="fill:#00ff00;fill-opacity:1;stroke:none"
       id="path4541"
       sodipodi:cx="485"
       sodipodi:cy="169.40942"
       sodipodi:rx="15"
       sodipodi:ry="15"
       d="m 500,169.40942 c 0,8.28428 -6.71573,15 -15,15 -8.28427,0 -15,-6.71572 -15,-15 0,-8.28427 6.71573,-15 15,-15 8.28427,0 15,6.71573 15,15 z"
       transform="translate(-275,542.9527)" />
    <text
       xml:space="preserve"
       style="font-size:30px;font-style:normal;font-weight:normal;line-height:1000%;letter-spacing:0px;word-spacing:0px;fill:#000000;fill-opacity:1;stroke:none;font-family:Sans"
       x="200"
       y="722.36218"
       id="text4543"
       sodipodi:linespacing="1000%"><tspan
         sodipodi:role="line"
         id="tspan4545"
         x="200"
         y="722.36218">1</tspan></text>
    <path
       transform="translate(-185,582.9527)"
       sodipodi:type="arc"
       style="fill:#00ff00;fill-opacity:1;stroke:none"
       id="path4541-8"
       sodipodi:cx="485"
       sodipodi:cy="169.40942"
       sodipodi:rx="15"
       sodipodi:ry="15"
       d="m 500,169.40942 c 0,8.28428 -6.71573,15 -15,15 -8.28427,0 -15,-6.71572 -15,-15 0,-8.28427 6.71573,-15 15,-15 8.28427,0 15,6.71573 15,15 z" />
    <text
       xml:space="preserve"
       style="font-size:30px;font-style:normal;font-weight:normal;line-height:1000%;letter-spacing:0px;word-spacing:0px;fill:#000000;fill-opacity:1;stroke:none;font-family:Sans"
       x="290"
       y="762.36218"
       id="text4543-7"
       sodipodi:linespacing="1000%"><tspan
         sodipodi:role="line"
         id="tspan4545-7"
         x="290"
         y="762.36218">5</tspan></text>
    <path
       transform="translate(-345,652.9527)"
       sodipodi:type="arc"
       style="fill:#00ff00;fill-opacity:1;stroke:none"
       id="path4541-2"
       sodipodi:cx="485"
       sodipodi:cy="169.40942"
       sodipodi:rx="15"
       sodipodi:ry="15"
       d="m 500,169.40942 c 0,8.28428 -6.71573,15 -15,15 -8.28427,0 -15,-6.71572 -15,-15 0,-8.28427 6.71573,-15 15,-15 8.28427,0 15,6.71573 15,15 z" />
    <text
       xml:space="preserve"
       style="font-size:30px;font-style:normal;font-weight:normal;line-height:1000%;letter-spacing:0px;word-spacing:0px;fill:#000000;fill-opacity:1;stroke:none;font-family:Sans"
       x="130"
       y="832.36218"
       id="text4543-9"
       sodipodi:linespacing="1000%"><tspan
         sodipodi:role="line"
         id="tspan4545-3"
         x="130"
         y="832.36218">2</tspan></text>
    <path
       transform="translate(-205,752.9527)"
       sodipodi:type="arc"
       style="fill:#00ff00;fill-opacity:1;stroke:none"
       id="path4541-28"
       sodipodi:cx="485"
       sodipodi:cy="169.40942"
       sodipodi:rx="15"
       sodipodi:ry="15"
       d="m 500,169.40942 c 0,8.28428 -6.71573,15 -15,15 -8.28427,0 -15,-6.71572 -15,-15 0,-8.28427 6.71573,-15 15,-15 8.28427,0 15,6.71573 15,15 z" />
    <text
       xml:space="preserve"
       style="font-size:30px;font-style:normal;font-weight:normal;line-height:1000%;letter-spacing:0px;word-spacing:0px;fill:#000000;fill-opacity:1;stroke:none;font-family:Sans"
       x="270"
       y="932.36218"
       id="text4543-0"
       sodipodi:linespacing="1000%"><tspan
         sodipodi:role="line"
         id="tspan4545-1"
         x="270"
         y="932.36218">3</tspan></text>
    <path
       transform="translate(-125,762.95267)"
       sodipodi:type="arc"
       style="fill:#00ff00;fill-opacity:1;stroke:none"
       id="path4541-6"
       sodipodi:cx="485"
       sodipodi:cy="169.40942"
       sodipodi:rx="15"
       sodipodi:ry="15"
       d="m 500,169.40942 c 0,8.28428 -6.71573,15 -15,15 -8.28427,0 -15,-6.71572 -15,-15 0,-8.28427 6.71573,-15 15,-15 8.28427,0 15,6.71573 15,15 z" />
    <text
       xml:space="preserve"
       style="font-size:30px;font-style:normal;font-weight:normal;line-height:1000%;letter-spacing:0px;word-spacing:0px;fill:#000000;fill-opacity:1;stroke:none;font-family:Sans"
       x="350"
       y="942.36218"
       id="text4543-5"
       sodipodi:linespacing="1000%"><tspan
         sodipodi:role="line"
         id="tspan4545-4"
         x="350"
         y="942.36218">4</tspan></text>
    <path
       style="fill:none;stroke:#000000;stroke-width:1px;stroke-linecap:butt;stroke-linejoin:miter;stroke-opacity:1"
       d="m 430,304.40942 c 30,-20 30,-20 30,-20 l 0,40 z"
       id="path4615"
       inkscape:connector-curvature="0"
       transform="translate(0,527.95273)"
       sodipodi:nodetypes="cccc" />
    <path
       style="fill:#ffff00;fill-opacity:1;stroke:none"
       d="m 445.2082,313.89405 -14.21883,-9.479 14.21883,-9.47934 14.21883,-9.47934 0.0227,9.50127 c 0.0125,5.2257 0.0125,13.75695 0,18.95834 l -0.0227,9.45708 -14.21883,-9.47901 z"
       id="path4621"
       inkscape:connector-curvature="0"
       transform="translate(0,527.95273)" />
    <text
       xml:space="preserve"
       style="font-size:40px;font-style:normal;font-weight:normal;line-height:1000%;letter-spacing:0px;word-spacing:0px;fill:#000000;fill-opacity:1;stroke:none;font-family:Sans"
       x="87.14286"
       y="66.552277"
       id="text4623"
       sodipodi:linespacing="1000%"
       transform="translate(0,527.95273)"><tspan
         sodipodi:role="line"
         id="tspan4625"
         x="87.14286"
         y="66.552277">Wheel is rotated</tspan></text>
    <path
       style="fill:none;stroke:#000000;stroke-width:1.49152541px;stroke-linecap:butt;stroke-linejoin:miter;stroke-opacity:1"
       d="m 150.24576,642.11639 c 89.76717,-44.60835 189.50848,0 189.50848,0 l 0,0 0,0"
       id="path3016"
       inkscape:connector-curvature="0" />
    <path
       style="fill:#000000;stroke:#000000;stroke-width:0.93486702px;stroke-linecap:butt;stroke-linejoin:miter;stroke-opacity:1"
       d="m 354.20139,651.39471 c -13.61825,-19.4937 -13.61825,-19.4937 -13.61825,-19.4937 l -12.34975,18.64616 z"
       id="path3018"
       inkscape:connector-curvature="0" />
    <text
       xml:space="preserve"
       style="font-size:30px;font-style:normal;font-weight:normal;line-height:1000%;letter-spacing:0px;word-spacing:0px;fill:#000000;fill-opacity:1;stroke:none;font-family:Sans"
       x="470"
       y="842.36218"
       id="text3020"
       sodipodi:linespacing="1000%"><tspan
         sodipodi:role="line"
         id="tspan3022"
         x="470"
         y="842.36218">Selection point</tspan></text>
    <text
       xml:space="preserve"
       style="font-size:24px;font-style:normal;font-weight:normal;line-height:100%;letter-spacing:0px;word-spacing:0px;fill:#000000;fill-opacity:1;stroke:none;font-family:Sans"
       x="455"
       y="952.36218"
       id="text3024"
       sodipodi:linespacing="100%"><tspan
         sodipodi:role="line"
         x="455"
         y="952.36218"
         id="tspan3036">Individual 4 has low </tspan><tspan
         sodipodi:role="line"
         x="455"
         y="976.36218"
         id="tspan3040">fitness and a small </tspan><tspan
         sodipodi:role="line"
         x="455"
         y="1000.3622"
         id="tspan3042">area of the wheel</tspan></text>
    <path
       style="fill:#000000;stroke:#000000;stroke-width:2;stroke-linecap:butt;stroke-linejoin:miter;stroke-opacity:1;stroke-miterlimit:4;stroke-dasharray:none;fill-opacity:1"
       d="m 435.1359,977.05162 -44.9593,-24.82537 4.99548,14.89522 9.99095,-14.89522 -14.98643,0 0,0 0,0"
       id="path3044"
       inkscape:connector-curvature="0" />
    <text
       xml:space="preserve"
       style="font-size:24px;font-style:normal;font-weight:normal;line-height:100%;letter-spacing:0px;word-spacing:0px;fill:#000000;fill-opacity:1;stroke:none;font-family:Sans"
       x="470"
       y="662.36218"
       id="text3024-9"
       sodipodi:linespacing="100%"><tspan
         sodipodi:role="line"
         x="470"
         y="662.36218"
         id="tspan3036-8">Individual 1 has high </tspan><tspan
         sodipodi:role="line"
         x="470"
         y="686.36218"
         id="tspan3040-2">fitness and a large </tspan><tspan
         sodipodi:role="line"
         x="470"
         y="710.36218"
         id="tspan3042-9">area of the wheel</tspan></text>
    <path
       style="fill:#000000;fill-opacity:1;stroke:#000000;stroke-width:2.4378438;stroke-linecap:butt;stroke-linejoin:miter;stroke-miterlimit:4;stroke-opacity:1;stroke-dasharray:none"
       d="m 462.05984,691.41339 -55.23574,30.02251 6.1373,-18.0135 12.2746,18.0135 -18.4119,0 0,0 0,0"
       id="path3044-3"
       inkscape:connector-curvature="0" />
  </g>
</svg>
